REM MD5 a8399ea074d7533587dde93bf036aaae
FILE "PlayStation Zone CD Vol. 8 (Germany).bin" BINARY
  TRACK 01 MODE2/2352
    INDEX 01 00:00:00
  TRACK 02 AUDIO
    INDEX 00 35:57:23
    INDEX 01 35:59:23
  TRACK 03 AUDIO
    INDEX 00 38:55:47
    INDEX 01 38:57:47
  TRACK 04 AUDIO
    INDEX 00 42:59:65
    INDEX 01 43:01:65
REM LEADOUT 46:09:23
